<svg id="EastPark-Logo-2013-3D-CMYK-dark" xmlns="http://www.w3.org/2000/svg" xmlns:xlink="http://www.w3.org/1999/xlink" width="160.398" height="90.169" viewBox="0 0 160.398 90.169">
  <defs>
    <clipPath id="clip-path">
      <path id="Path_27" data-name="Path 27" d="M95.724,1.113c-5.178,1.711-7.634,4.369-7.772,10.365,0,0-.524,8.3,6.889,11.156s9.4,1.444,9.795,3.274c.662,3.035-7.946,11.138-23.6,1.554a14.276,14.276,0,0,0-2.29,8.765,11.645,11.645,0,0,1,3.642-.819,14.854,14.854,0,0,1,4.3.359,15.642,15.642,0,0,1,2.364.745A16.061,16.061,0,0,1,92.532,38.4a13.784,13.784,0,0,1,1.711,1.462l.037.037c.1.1.184.193.267.285.239.028.478.064.708.1a19.472,19.472,0,0,0,.258-2.336c1.885.819,3.817,1.472,4.507,1.7h0c.4.129.8.239,1.2.331.193.046.4.074.6.11s.423.092.644.12c.276.037.561.064.846.092.138.018.276.037.414.046.34.028.69.028,1.039.028.074,0,.156.009.23.009.4-.009.791-.028,1.186-.064a.179.179,0,0,0,.074-.009,11.344,11.344,0,0,0,10.42-9.354h0c.037-.175.092-.34.129-.524a15.918,15.918,0,0,0,.055-5.941,12.823,12.823,0,0,0-3.339-7.082,16.69,16.69,0,0,0-5.491-3.716c-1.913-.846-3.771-1.389-5.169-1.858s-2.327-.892-2.364-1.49a.911.911,0,0,1,.092-.515.814.814,0,0,1,.349-.331,1.873,1.873,0,0,1,.579-.175,4.956,4.956,0,0,1,.782-.055h.138a.841.841,0,0,1,.147.009h.147c.046,0,.1.009.147.009a18.984,18.984,0,0,1,2.6.322,50.82,50.82,0,0,1,8.415,2.915c1.4-3.118,2.722-5.8,2.373-9.657C113.346,2.051,109.418,1,108.02.69A24.484,24.484,0,0,0,102.456,0a21.177,21.177,0,0,0-6.732,1.113" transform="translate(-78.698)"/>
    </clipPath>
    <linearGradient id="linear-gradient" x1="-3.512" y1="5.816" x2="-3.499" y2="5.816" gradientUnits="objectBoundingBox">
      <stop offset="0" stop-color="#a8dcf5"/>
      <stop offset="0.142" stop-color="#89d2f2"/>
      <stop offset="0.436" stop-color="#4fbfeb"/>
      <stop offset="0.688" stop-color="#24b1e7"/>
      <stop offset="0.884" stop-color="#0aa8e4"/>
      <stop offset="1" stop-color="#00a5e3"/>
    </linearGradient>
  </defs>
  <g id="Group_1" data-name="Group 1" transform="translate(0 1.628)">
    <path id="Path_1" data-name="Path 1" d="M61.011,34.213c-.166.515-.331,1.03-.515,1.582s-.368,1.159-.589,1.849c-1.315.064-2.456.129-3.523.193s-2.051.12-3.026.193c-.478.037-.957.064-1.444.1l.386-2.364-.708-1.416c.166-.018.313-.037.487-.055.147-.773.267-1.453.386-2.088s.221-1.214.331-1.793.212-1.159.331-1.793.239-1.306.386-2.079L52.9,25.107c.359-.028.763-.037,1.177-.046l1.8-10.926L52.457,4c-.156.846-.285,1.591-.4,2.281s-.239,1.324-.349,1.968-.23,1.278-.349,1.968-.258,1.444-.414,2.29c-1.324.147-2.492.285-3.569.414s-2.069.258-3.063.4-1.987.276-3.063.441-2.235.34-3.559.552c-.064.276-.129.524-.184.754s-.11.441-.166.644-.11.423-.166.644-.12.469-.193.754l4.681,7.946c-.258.028-.515.064-.763.092-.929.11-1.849.239-2.851.368s-2.079.285-3.32.469c-.083.331-.156.625-.23.892s-.129.515-.193.763-.129.5-.193.763-.147.561-.23.892l6.861,9.216q.11-.428.193-.773c.064-.23.11-.451.166-.662s.11-.432.166-.662.12-.487.193-.773c1.058-.156,1.987-.285,2.851-.4s1.665-.221,2.456-.322c.055-.009.11-.009.166-.018-.046.248-.083.478-.129.736-.156.892-.331,1.858-.533,2.961-2.318.193-4.645.414-6.962.644s-4.645.487-6.962.754c-.828.092-1.655.212-2.483.313.4,2.308.855,4.847,1.3,7.339.543-.074,1.085-.156,1.628-.23q2.994-.4,5.978-.754T44.75,46c1.987-.2,3.964-.386,5.951-.552l.2-1.2.791,1.1c1.122-.092,2.115-.175,3.026-.248s1.757-.129,2.6-.193,1.692-.11,2.6-.166c.846-.046,1.747-.1,2.768-.147l.46,1.15c.193-.6.359-1.113.506-1.6s.294-.929.441-1.37.285-.883.441-1.37.322-.993.506-1.591L62.105,30.8c-.221.681-.414,1.278-.6,1.83-.166.561-.331,1.067-.5,1.582" transform="translate(-2.397 -1.949)" fill="#00416b"/>
    <path id="Path_2" data-name="Path 2" d="M75.811,37.782l-1.2-6.751c-.966.028-1.812.055-2.6.083-.386.009-.754.028-1.113.037.092-.294.193-.579.276-.855.239-.745.469-1.435.69-2.115s.451-1.37.69-2.115.506-1.545.8-2.456L71.323,12.03c-.349,1.048-.653,1.968-.929,2.824s-.543,1.646-.8,2.437-.524,1.582-.809,2.446-.589,1.784-.938,2.842l2.134,8.609c-.064,0-.138.009-.2.009-.727.028-1.453.064-2.235.1s-1.628.083-2.6.138l2.732,8.351c.837-.046,1.674-.074,2.354-.11s1.3-.064,1.931-.092,1.251-.055,1.922-.074l.874-.028a5.91,5.91,0,0,1,1.8-1.729c-.258.018-.487.028-.745.028" transform="translate(-5.214 -2.594)" fill="#00416b"/>
    <path id="Path_3" data-name="Path 3" d="M136.036,27.423l1.665.313c.589.11,1.214.23,1.941.377l7.68-10.945c-.837-.166-1.573-.3-2.244-.432s-1.306-.239-1.931-.359l-1.931-.34c-.681-.12-1.407-.239-2.244-.377L132.44,26.8c.717.12,1.352.23,1.931.331s1.122.2,1.665.294" transform="translate(-10.633 -2.885)" fill="#00416b"/>
    <path id="Path_4" data-name="Path 4" d="M137.785,40.325c-.975-.1-1.959-.212-3.017-.313s-2.2-.221-3.5-.34q-.662-3.283-1.315-6.548c-.432-2.171-.874-4.332-1.306-6.493s-.865-4.3-1.288-6.438-.855-4.267-1.269-6.383c-.837-.11-1.573-.193-2.253-.276s-1.315-.156-1.941-.221-1.26-.138-1.941-.2-1.416-.138-2.253-.221l-3.8,11.478c.727.074,1.352.129,1.941.193s1.131.12,1.674.175,1.085.12,1.674.193,1.214.147,1.941.239l1.076,5.546c.359,1.858.727,3.725,1.094,5.583s.727,3.743,1.094,5.629.745,3.771,1.113,5.665c1.122.11,2.106.2,3.017.294s1.757.184,2.594.276,1.683.193,2.594.294,1.885.23,3.007.368L144.3,41.1c-1.3-.166-2.437-.3-3.495-.423-1.058-.138-2.042-.248-3.017-.349" transform="translate(-9.144 -2.663)" fill="#00416b"/>
    <path id="Path_5" data-name="Path 5" d="M45.516,4.782c-1.885.258-3.624.515-5.362.8s-3.477.6-5.353.966-3.9.773-6.208,1.26c-.874,2.778-1.757,5.573-2.64,8.369q-1.338,4.221-2.686,8.461c-.727,2.281-1.462,4.58-2.2,6.879l6.346-1.048.331,1.867c.239,1.37.782,4.378,1.416,7.956.828-.1,1.655-.212,2.483-.313,2.318-.267,4.635-.524,6.962-.754s4.635-.451,6.962-.644c.193-1.1.368-2.06.533-2.961s.313-1.72.46-2.538.294-1.646.46-2.538.331-1.849.533-2.943c-1.435.138-2.695.267-3.872.386s-2.244.239-3.32.368-2.152.258-3.32.414-2.419.322-3.854.515c.083-.331.166-.625.23-.892s.138-.515.193-.763.129-.5.193-.763.147-.561.23-.892c1.232-.175,2.318-.322,3.32-.469s1.931-.258,2.851-.368,1.858-.23,2.86-.34,2.088-.23,3.32-.359c.166-.9.322-1.683.451-2.41s.267-1.4.386-2.06.248-1.343.386-2.06.285-1.5.451-2.391c-1.177.138-2.207.258-3.164.377s-1.839.23-2.722.349-1.766.248-2.722.386-1.987.294-3.164.478c.074-.285.138-.524.193-.754s.11-.432.166-.644.1-.423.166-.644.12-.469.184-.754c1.324-.212,2.483-.4,3.559-.552s2.069-.3,3.063-.441,1.987-.267,3.063-.4,2.244-.267,3.568-.414c.156-.855.285-1.6.414-2.29s.239-1.334.349-1.968.23-1.278.349-1.968.258-1.435.4-2.281c-2.336.276-4.369.524-6.254.782" transform="translate(-1.692 -1.949)" fill="#00a5e3"/>
    <path id="Path_6" data-name="Path 6" d="M73.591,32.05c.092.552.184,1.048.267,1.564s.175,1.012.267,1.564.2,1.14.313,1.821c.267-.009.515-.009.763-.018a6.778,6.778,0,0,1,.809-.441c.018-.009.046-.018.064-.028a11.656,11.656,0,0,1,3.881-.911,14.854,14.854,0,0,1,4.3.359,16.717,16.717,0,0,1,2.364.736c.147.055.285.12.432.184h.451Q86.2,32.436,84.895,28.04T82.3,19.3q-1.3-4.332-2.575-8.627c-.855-2.851-1.7-5.7-2.557-8.526-1.3.037-2.428.074-3.486.11s-2.023.083-3,.138-1.941.11-3,.184-2.189.147-3.486.248q-1.945,4.346-3.9,8.728-1.959,4.4-3.955,8.838-1.987,4.456-4,8.94T48.29,38.378c1.306-.11,2.456-.2,3.513-.285s2.051-.156,3.026-.221,1.968-.129,3.026-.193,2.207-.12,3.523-.193c.221-.69.414-1.288.589-1.849s.349-1.067.515-1.582.331-1.03.506-1.582.377-1.15.6-1.83c.966-.055,1.812-.092,2.6-.138s1.508-.074,2.235-.1,1.453-.055,2.235-.083,1.628-.055,2.6-.083c.129.681.23,1.269.331,1.812M70.363,21.611c-.432.018-.828.037-1.223.055s-.791.037-1.223.055-.892.046-1.416.074c.349-1.058.653-1.987.938-2.842s.543-1.646.809-2.437.524-1.582.8-2.437.589-1.775.929-2.824c.175,1.021.34,1.922.478,2.75s.276,1.609.414,2.373.267,1.545.414,2.391.3,1.747.478,2.787c-.506.018-.966.037-1.4.055" transform="translate(-3.877 -1.801)" fill="#00a5e3"/>
    <path id="Path_7" data-name="Path 7" d="M104.795,56.94a4.429,4.429,0,0,0-1.508-1.416,6.089,6.089,0,0,0-1.232-.533,27.817,27.817,0,0,1-3.191.184c-.276,0-.552-.018-.819-.018L96.6,61.023a2.312,2.312,0,0,0,.248-.037l.276-.028c.092-.009.2-.018.3-.018s.221-.009.331-.009h.1a7.387,7.387,0,0,1,1.545.193A5.732,5.732,0,0,1,101,61.75a3.8,3.8,0,0,1,1.288,1.223,4.194,4.194,0,0,1,.635,1.987c.018.2.018.4.018.579a4.629,4.629,0,0,1-.046.524,4.019,4.019,0,0,1-.11.478,2.889,2.889,0,0,1-.166.423q1.269-2.69,2.557-5.39a4.476,4.476,0,0,0,.193-.487,4.849,4.849,0,0,0,.129-.552,4.252,4.252,0,0,0,.055-.607,5.758,5.758,0,0,0-.018-.681,4.762,4.762,0,0,0-.736-2.308" transform="translate(-7.756 -6.043)" fill="#006b2d"/>
    <path id="Path_8" data-name="Path 8" d="M14.053,56.231c7.183-.911,8.535-4.681,8.535-4.681l2.318,13.722c.028-.009.064-.009.092-.018a8.425,8.425,0,0,0,2.262-.763,6.682,6.682,0,0,0,1.793-1.343c-.561-3.78-4.884-27.987-4.884-27.987l-4.074.671.221,1.775s-.865,3.55-8.048,4.461A43.738,43.738,0,0,0,0,45.433L1.564,59.919a40.751,40.751,0,0,1,12.49-3.688" transform="translate(0 -4.451)" fill="#8e3e03"/>
    <path id="Path_9" data-name="Path 9" d="M64.932,71.72c.313-1.03.589-1.987.874-2.943s.57-1.9.874-2.934.635-2.143,1.012-3.4l-2.64-5.61c-.441,1.472-.828,2.75-1.186,3.946s-.69,2.3-1.03,3.4-.662,2.217-1.03,3.412-.754,2.5-1.2,3.982l3.293,3.568c.4-1.269.736-2.382,1.039-3.421" transform="translate(-4.865 -6.19)" fill="#006b2d"/>
    <path id="Path_10" data-name="Path 10" d="M66.1,86.36c-1.122.009-2.1.018-3.007.018l-2.584.028-2.584.028c-.911.009-1.885.028-3,.037-.294.966-.543,1.821-.782,2.612s-.451,1.527-.671,2.253-.432,1.462-.671,2.253-.5,1.646-.782,2.621H36.81l6.9.874H56.74c.248-.837.46-1.573.662-2.244s.386-1.306.57-1.931.368-1.251.57-1.931.414-1.407.662-2.244c.957-.009,1.793-.018,2.575-.037L64,88.668c.717-.009,1.435-.018,2.217-.018s1.619-.009,2.575-.018Z" transform="translate(-2.955 -8.561)" fill="#006b2d"/>
    <path id="Path_11" data-name="Path 11" d="M138.9,56.342c.285-1.159.561-2.226.828-3.283s.533-2.115.828-3.256.6-2.354.957-3.743l-7.808,6.824c-.313,1.2,0,2.833-.248,3.817s-.487,1.895-.717,2.805-.469,1.839-.727,2.833-.533,2.088-.846,3.329l6.778-5.472c.349-1.435.662-2.695.956-3.854" transform="translate(-10.531 -5.326)" fill="#006b2d"/>
    <path id="Path_12" data-name="Path 12" d="M163.5,92.833H150.846c-1.343-2.125-2.511-3.982-3.6-5.73s-2.079-3.348-3.072-4.976-1.987-3.265-3.053-5.049-2.217-3.7-3.523-5.9l-7.165,3.936c1.113,1.895,2.088,3.55,3,5.077s1.757,2.934,2.594,4.332,1.692,2.787,2.612,4.277c.773,1.251,1.591,2.575,2.511,4.038h-13.86q-.98-6.263-1.959-12.453-.966-6.167-1.922-12.26-.952-6.07-1.885-12.067-.938-5.974-1.849-11.874l-4.553,7.643q.773,5.1,1.564,10.255.786,5.173,1.591,10.4t1.609,10.54q.745,4.884,1.508,9.813H108.926c-.929-4.5-1.738-7.864-2.483-10.365a21.552,21.552,0,0,0-2.152-5.279,4.313,4.313,0,0,0-2.244-1.941,8.607,8.607,0,0,0-2.768-.3l-2.658,3.4a3.1,3.1,0,0,1,1.527.258,3.666,3.666,0,0,1,1.922,1.674A18.473,18.473,0,0,1,101.9,84.8c.635,2.152,1.324,5.04,2.115,8.894h30.479l6.742-.736c.156.248.3.487.46.736h14.817l11.634-.874H163.5Z" transform="translate(-7.757 -5.175)" fill="#006b2d"/>
    <path id="Path_13" data-name="Path 13" d="M42.407,77.828a19.125,19.125,0,0,0,6.585-11.782,13.005,13.005,0,0,0,.377-2.676,10.562,10.562,0,0,0-.184-2.391,9.2,9.2,0,0,0-.69-2.1A8.748,8.748,0,0,0,47.364,57.1q-2.814-3.449-5.638-6.9a9.6,9.6,0,0,1,1.306,2.069,10.018,10.018,0,0,1,.791,2.428,12.258,12.258,0,0,1,.212,2.768,15.557,15.557,0,0,1-.451,3.109A22.33,22.33,0,0,1,35.868,74.26a22.991,22.991,0,0,1-14.8,5.371h-.377c-.129,0-.258-.009-.386-.009s-.258-.009-.386-.018-.258-.009-.386-.018c-.377,1.38-.708,2.575-1.012,3.7s-.589,2.152-.874,3.182-.57,2.06-.874,3.173-.644,2.318-1.021,3.688H.9l11.634.874H25.263c.322-1.177.6-2.207.855-3.164s.5-1.839.736-2.722.478-1.775.727-2.732.533-2,.846-3.173c.11.009.221.009.331.018s.221.009.331.009.221.009.322.009h.331a19.525,19.525,0,0,0,12.664-4.617" transform="translate(-0.072 -5.658)" fill="#006b2d"/>
    <path id="Path_14" data-name="Path 14" d="M116.59,3.46c2.244.23,4.479.478,6.723.763s4.47.6,6.7.938,4.461.717,6.686,1.113,4.451.828,6.677,1.288c.267.855.5,1.61.708,2.308s.414,1.343.616,1.987.4,1.288.616,1.987.451,1.453.717,2.318c-.837-.166-1.573-.3-2.244-.432s-1.306-.239-1.931-.359l-1.931-.34c-.681-.12-1.407-.239-2.244-.377.552,2.106,1.113,4.212,1.674,6.337s1.122,4.249,1.692,6.383,1.14,4.286,1.72,6.438,1.159,4.323,1.738,6.493c-1.3-.166-2.437-.3-3.495-.423s-2.033-.239-3.007-.34-1.959-.212-3.017-.313-2.2-.221-3.5-.34q-.662-3.283-1.315-6.548t-1.306-6.493q-.648-3.228-1.288-6.438c-.423-2.134-.855-4.258-1.269-6.383-.837-.1-1.573-.193-2.253-.276s-1.306-.156-1.941-.221-1.26-.129-1.941-.2-1.416-.138-2.253-.221c-.138-.874-.248-1.628-.359-2.336s-.212-1.352-.3-2-.2-1.3-.3-2c-.12-.69-.239-1.444-.368-2.308" transform="translate(-9.36 -1.906)" fill="#00a5e3"/>
    <path id="Path_15" data-name="Path 15" d="M121.68,44.18c1.223.083,2.3.166,3.293.239s1.913.147,2.833.221,1.839.156,2.833.248,2.069.193,3.293.313c.322,1.481.607,2.778.865,3.982s.506,2.318.745,3.431.487,2.226.754,3.431.552,2.511.874,4c.359-1.444.671-2.695.966-3.863s.561-2.226.828-3.283.533-2.115.828-3.256.6-2.354.956-3.743c1.315.147,2.465.276,3.532.4l3.035.368c.984.129,1.968.258,3.035.4s2.207.3,3.523.487c-.451,1.711-.846,3.21-1.214,4.608s-.708,2.713-1.048,4.028-.681,2.649-1.058,4.093-.773,3.026-1.232,4.838q2.469,3.477,4.994,6.935,2.538,3.477,5.132,6.935,2.607,3.476,5.279,6.925t5.445,6.9h-17.3c-1.343-2.125-2.511-3.982-3.6-5.73s-2.079-3.348-3.072-4.976-1.987-3.265-3.053-5.049-2.217-3.7-3.523-5.9c.478,2.161.892,4.047,1.288,5.813s.754,3.385,1.113,5,.727,3.247,1.122,5.012.819,3.66,1.306,5.831H129.3q-.98-6.263-1.959-12.453-.966-6.167-1.922-12.26-.952-6.07-1.885-12.067c-.625-3.955-1.242-7.919-1.858-11.855" transform="translate(-9.769 -5.175)" fill="#49aa42"/>
    <path id="Path_16" data-name="Path 16" d="M15.165,54.987c7.183-.911,8.535-4.681,8.535-4.681l2.41,14.651a8.532,8.532,0,0,0,1.223-.5,6.51,6.51,0,0,0,2.06-1.637c.046-.055.083-.12.129-.175C28.97,59,24.51,34.67,24.51,34.67l-3.274.487.184,1.214s-.865,3.55-8.048,4.461A44.878,44.878,0,0,0,1.02,44.189L2.813,58.353a44.811,44.811,0,0,1,12.352-3.366" transform="translate(-0.082 -4.411)" fill="#e86d1f"/>
    <path id="Path_17" data-name="Path 17" d="M74.8,43.36l-.12-.23c.028.11.046.221.074.331a.9.9,0,0,1,.046-.1" transform="translate(-5.996 -5.091)" fill="#006b2d"/>
    <path id="Path_18" data-name="Path 18" d="M94.09,93.416h-6.76c-.727-3.357-1.49-6.7-2.2-10.034-.773-3.6-1.472-7.091-2.244-10.659-.763-3.55-1.692-7.174-2.456-10.7-.671-3.1-1.306-6.18-1.968-9.252a5.661,5.661,0,0,1-1.416-.552,6.034,6.034,0,0,1-1.113-.782c.322,1.49.644,2.971.966,4.461q1.324,6.112,2.658,12.3,1.338,6.222,2.686,12.5,1.352,6.318,2.713,12.71H69.81l2.538.874H96.123L98,93.407H94.09Z" transform="translate(-5.605 -5.758)" fill="#006b2d"/>
    <path id="Path_19" data-name="Path 19" d="M43.731,53.882a10.1,10.1,0,0,0-2.538-4.663A12.142,12.142,0,0,0,36.7,46.313a16.116,16.116,0,0,0-5.721-1c-.258,0-.506.009-.763.018s-.506.028-.763.046-.515.046-.773.083-.515.064-.773.11h-.028c.708,4.028,1.49,8.48,2.106,12.039a2.409,2.409,0,0,1,.773,1.232,3.57,3.57,0,0,1,.074,1.315,5.679,5.679,0,0,1-.12.727c-.028.129-.074.239-.11.359h0a6.635,6.635,0,0,1-1.232,2.428,6.411,6.411,0,0,1-2.06,1.637,8.217,8.217,0,0,1-2.262.763,10.761,10.761,0,0,1-1.941.193H22.9c.028-.11.055-.212.083-.313L21.41,56.54a15.853,15.853,0,0,1-7.045,2.41c-.625.083-1.232.175-1.83.285q-1.821,5.436-3.7,10.917Q6.906,75.78,4.928,81.464,2.942,87.175.9,92.924H15.763c.386-1.37.717-2.575,1.021-3.688s.589-2.143.874-3.173.561-2.06.874-3.182.635-2.318,1.012-3.7c.129.009.258.018.386.018s.258.009.386.018.248.009.386.009h.377a22.992,22.992,0,0,0,14.8-5.371,22.33,22.33,0,0,0,7.716-13.685,13.33,13.33,0,0,0,.138-6.291" transform="translate(-0.072 -5.266)" fill="#49aa42"/>
    <path id="Path_20" data-name="Path 20" d="M76.919,67.54q-1.338-6.18-2.658-12.3c-.322-1.5-.644-2.971-.966-4.461a5.615,5.615,0,0,1-.947-1.085,6.413,6.413,0,0,1-.993-2.5,7.066,7.066,0,0,1,.359-3.725c-.018-.11-.046-.221-.074-.331-1.462.046-2.741.083-3.936.12s-2.29.083-3.385.129-2.2.1-3.385.166-2.465.138-3.927.23q-2.414,5.96-4.865,11.975Q49.672,61.8,47.166,67.917q-2.525,6.139-5.1,12.324-2.594,6.222-5.252,12.508H52.022c.294-.975.552-1.83.782-2.621s.451-1.527.671-2.253.432-1.462.671-2.253.487-1.646.782-2.612c1.113-.018,2.1-.028,3-.037l2.584-.028,2.584-.028c.911-.009,1.885-.018,3.007-.028.11.984.2,1.839.285,2.64s.166,1.536.239,2.272.156,1.481.248,2.281.184,1.674.285,2.667H82.317q-1.366-6.387-2.713-12.71-1.352-6.291-2.686-12.5M63.132,70.373l-1.4.028c-.451.009-.911.018-1.4.037s-1.021.028-1.628.046c.451-1.481.837-2.778,1.2-3.982s.7-2.308,1.03-3.412.662-2.207,1.03-3.4.745-2.483,1.186-3.946c.156,1.444.294,2.713.423,3.9s.248,2.272.368,3.366.239,2.2.368,3.394.267,2.483.432,3.964c-.607-.009-1.131,0-1.619.009" transform="translate(-2.955 -5.091)" fill="#49aa42"/>
    <path id="Path_21" data-name="Path 21" d="M121.556,86.912a53.518,53.518,0,0,0-1.959-6.282,28.02,28.02,0,0,0-2.925-5.675,18.356,18.356,0,0,0-4.332-4.516,12.877,12.877,0,0,0,2.033-1.646,9.631,9.631,0,0,0,1.775-2.419,10.732,10.732,0,0,0,1.076-3.44,16.842,16.842,0,0,0-.046-4.7,16.3,16.3,0,0,0-2.253-6.76,15.941,15.941,0,0,0-1.665-2.226,20.915,20.915,0,0,1-12.168,5.261,6.322,6.322,0,0,1,1.232.533,4.58,4.58,0,0,1,1.5,1.416,4.863,4.863,0,0,1,.745,2.308,4.48,4.48,0,0,1-.4,2.437,3.585,3.585,0,0,1-1.4,1.444,5.89,5.89,0,0,1-1.876.681,9.712,9.712,0,0,1-1.858.175h-.184c-.12,0-.221,0-.331-.009s-.2-.009-.3-.009-.193-.009-.285-.028-.184-.028-.276-.046c-.046-.929-.083-1.738-.129-2.492s-.074-1.444-.1-2.134-.074-1.38-.11-2.134c-.037-.607-.064-1.278-.1-2a28.944,28.944,0,0,1-4.819-.524,4.625,4.625,0,0,1-.846.589,4.952,4.952,0,0,1-2.428.662,4.345,4.345,0,0,1-2.686-.9,4.855,4.855,0,0,1-1.306-1.545,5.363,5.363,0,0,1-.294-.662c-.009,1.2-.009,2.391-.018,3.605q-.028,6.084-.064,12.251-.028,6.194-.064,12.444-.028,6.291-.064,12.646H99.2c-.092-1.812-.175-3.385-.248-4.847s-.138-2.805-.212-4.148-.129-2.676-.2-4.13-.147-3-.23-4.764a8.919,8.919,0,0,1,2.768.294,4.356,4.356,0,0,1,2.244,1.941,21.989,21.989,0,0,1,2.152,5.27c.745,2.511,1.554,5.868,2.483,10.365h15.028c-.423-2.014-.883-4.157-1.426-6.291" transform="translate(-6.794 -5.582)" fill="#49aa42"/>
    <path id="Path_22" data-name="Path 22" d="M85.259,45.33l.037-.037a8.074,8.074,0,0,1,2.336-1.444,9.817,9.817,0,0,1,2.842-.69,11.237,11.237,0,0,1,1.665-.037c.23.009.441.055.671.083a13.124,13.124,0,0,0-1.076-.883,15.063,15.063,0,0,0-3.274-1.775,15.257,15.257,0,0,0-2.226-.7,13.786,13.786,0,0,0-4.028-.331,10.851,10.851,0,0,0-3.587.837c-.009,0-.009.009-.018.009A5,5,0,0,0,75.593,45.9a4.631,4.631,0,0,0,.717,1.793,3.951,3.951,0,0,0,1.416,1.278,4.562,4.562,0,0,0,3.09.414,7.508,7.508,0,0,0,3.044-1.508,4.385,4.385,0,0,1,1.4-2.548" transform="translate(-6.063 -4.798)" fill="#6ac9ef"/>
    <path id="Path_23" data-name="Path 23" d="M81.076,51.149a6.626,6.626,0,0,1-1.186.11,5.258,5.258,0,0,1-2.529-.625,5.318,5.318,0,0,1-.8-.543,4.841,4.841,0,0,0,1.472,1.214,5.232,5.232,0,0,0,2.529.625,6.626,6.626,0,0,0,1.186-.11,7.144,7.144,0,0,0,2.4-.975,4.616,4.616,0,0,1-.212-.966,7.811,7.811,0,0,1-2.86,1.269" transform="translate(-6.147 -5.633)" fill="#00416b"/>
    <path id="Path_24" data-name="Path 24" d="M86.954,51.493a2.535,2.535,0,0,0,1.113.487,2.947,2.947,0,0,0,1.968-.377c1.784-.984,2.538-3.826,4.111-5.15a2.624,2.624,0,0,1,.653-.441,2.655,2.655,0,0,1,.6-.193c.055-.2.1-.4.147-.607a2.974,2.974,0,0,0-.3-.12,10.077,10.077,0,0,0-2.354-.423,10.225,10.225,0,0,0-1.5.028,8.794,8.794,0,0,0-2.52.616,7.137,7.137,0,0,0-2.014,1.242.009.009,0,0,1-.009.009,3.211,3.211,0,0,0-.708,3.982,3.385,3.385,0,0,0,.819.947" transform="translate(-6.883 -5.213)" fill="#a8dcf5"/>
    <path id="Path_25" data-name="Path 25" d="M116.214,31.164a16.094,16.094,0,0,0,.064-5.941,12.823,12.823,0,0,0-3.339-7.082.794.794,0,0,0-.129-.12l1.462-4.424c.083.037.184.083.258.12a11.359,11.359,0,0,0,1.757-10.384c-1.987-.423-4.764-.276-6.64-.837-.892-.267-2.042.4-2.98.175s-1.895-.414-2.879-.561-1.968-.258-2.971-.313c-.092-.009-.184-.009-.276-.009s-.184-.009-.276-.009-.184-.009-.267-.009h-.267a14.386,14.386,0,0,0-4.516.662,8.711,8.711,0,0,0-3.191,2.189c-.956.865-1.131,1.757-1.637,3.035a12.13,12.13,0,0,0-.763,4.5c.028,3.32.175,5.629,1.609,7.385.212.258.432.5.662.727A10.586,10.586,0,0,1,90.416,18.8,11.466,11.466,0,0,1,88,11.335v-.6L87.63,22.482a.607.607,0,0,1-.009.129V23a9.963,9.963,0,0,0,2.088,6.484,9.622,9.622,0,0,0,1.821,1.7,32.657,32.657,0,0,1-10.871-4.755A14.806,14.806,0,0,0,77.991,36.71a3.266,3.266,0,0,1,.4-.212c.018-.009.046-.018.064-.028a11.656,11.656,0,0,1,3.881-.911,14.854,14.854,0,0,1,4.3.359A15.64,15.64,0,0,1,89,36.664a16.061,16.061,0,0,1,3.477,1.885,13.785,13.785,0,0,1,1.711,1.462l.037.037c.1.1.184.193.267.285.239.028.478.064.708.1a20.555,20.555,0,0,1-.837,3.366c-.018.018-.046.028-.064.046a8.7,8.7,0,0,0-1.582,2.134,8.094,8.094,0,0,1-2.75,3.173,4.254,4.254,0,0,1-2.051.561,3.939,3.939,0,0,1-.662-.055,3.745,3.745,0,0,1-1.61-.708c-.055-.037-.092-.092-.147-.138a3.934,3.934,0,0,0,.717.745,3.638,3.638,0,0,0,1.61.708,3.831,3.831,0,0,0,.653.055,4.275,4.275,0,0,0,2.06-.552,5.174,5.174,0,0,0,1.407-1.2,13.363,13.363,0,0,0,1.6.184c8.048,1.15,18-1.186,21.558-9.961a19.394,19.394,0,0,0,1.518-7.67,12.271,12.271,0,0,1-2.87,5.721,12.749,12.749,0,0,0,2.465-5.684" transform="translate(-6.253 -1.77)" fill="#00416b"/>
  </g>
  <g id="Group_3" data-name="Group 3" transform="translate(72.38)">
    <g id="Group_2" data-name="Group 2" clip-path="url(#clip-path)">
      <path id="Path_26" data-name="Path 26" d="M59.84,29.488,86.024-17.85,132.81,8.031,106.617,55.369Z" transform="translate(-77.184 1.433)" fill="url(#linear-gradient)"/>
    </g>
  </g>
</svg>
